<svg id="visual" viewBox="0 0 1080 150" width="1080" height="150" xmlns="http://www.w3.org/2000/svg" xmlns:xlink="http://www.w3.org/1999/xlink" version="1.1"><path d="M0 71L9 65.7C18 60.3 36 49.7 54 54.5C72 59.3 90 79.7 108 86.2C126 92.7 144 85.3 162 83.7C180 82 198 86 216 89.3C234 92.7 252 95.3 270 89.2C288 83 306 68 324 58.7C342 49.3 360 45.7 378 46.3C396 47 414 52 432 62.7C450 73.3 468 89.7 486 89.5C504 89.3 522 72.7 540 72.3C558 72 576 88 594 85.2C612 82.3 630 60.7 648 52.3C666 44 684 49 702 52C720 55 738 56 756 64.2C774 72.3 792 87.7 810 90.7C828 93.7 846 84.3 864 75.8C882 67.3 900 59.7 918 61C936 62.3 954 72.7 972 72C990 71.3 1008 59.7 1026 55.7C1044 51.7 1062 55.3 1071 57.2L1080 59L1080 0L1071 0C1062 0 1044 0 1026 0C1008 0 990 0 972 0C954 0 936 0 918 0C900 0 882 0 864 0C846 0 828 0 810 0C792 0 774 0 756 0C738 0 720 0 702 0C684 0 666 0 648 0C630 0 612 0 594 0C576 0 558 0 540 0C522 0 504 0 486 0C468 0 450 0 432 0C414 0 396 0 378 0C360 0 342 0 324 0C306 0 288 0 270 0C252 0 234 0 216 0C198 0 180 0 162 0C144 0 126 0 108 0C90 0 72 0 54 0C36 0 18 0 9 0L0 0Z" fill="#efde2c" stroke-linecap="round" stroke-linejoin="miter"></path></svg>