<svg id="visual" viewBox="0 0 1080 150" width="1080" height="150" xmlns="http://www.w3.org/2000/svg" xmlns:xlink="http://www.w3.org/1999/xlink" version="1.1"><path d="M0 77L9 82.3C18 87.7 36 98.3 54 93.5C72 88.7 90 68.3 108 61.8C126 55.3 144 62.7 162 64.3C180 66 198 62 216 58.7C234 55.3 252 52.7 270 58.8C288 65 306 80 324 89.3C342 98.7 360 102.3 378 101.7C396 101 414 96 432 85.3C450 74.7 468 58.3 486 58.5C504 58.7 522 75.3 540 75.7C558 76 576 60 594 62.8C612 65.7 630 87.3 648 95.7C666 104 684 99 702 96C720 93 738 92 756 83.8C774 75.7 792 60.3 810 57.3C828 54.3 846 63.7 864 72.2C882 80.7 900 88.3 918 87C936 85.7 954 75.3 972 76C990 76.7 1008 88.3 1026 92.3C1044 96.3 1062 92.7 1071 90.8L1080 89L1080 151L1071 151C1062 151 1044 151 1026 151C1008 151 990 151 972 151C954 151 936 151 918 151C900 151 882 151 864 151C846 151 828 151 810 151C792 151 774 151 756 151C738 151 720 151 702 151C684 151 666 151 648 151C630 151 612 151 594 151C576 151 558 151 540 151C522 151 504 151 486 151C468 151 450 151 432 151C414 151 396 151 378 151C360 151 342 151 324 151C306 151 288 151 270 151C252 151 234 151 216 151C198 151 180 151 162 151C144 151 126 151 108 151C90 151 72 151 54 151C36 151 18 151 9 151L0 151Z" fill="#efde2c" stroke-linecap="round" stroke-linejoin="miter"></path></svg>